<?xml version="1.0" encoding="utf-8"?>
<!-- Generator: Adobe Illustrator 24.1.3, SVG Export Plug-In . SVG Version: 6.00 Build 0)  -->
<svg version="1.1" id="Layer_1" xmlns="http://www.w3.org/2000/svg" xmlns:xlink="http://www.w3.org/1999/xlink" x="0px" y="0px"
	 viewBox="0 0 863.4 594.5" style="enable-background:new 0 0 863.4 594.5;" xml:space="preserve">
<style type="text/css">
	.st0{fill:#FFFFFF;}
	.st1{fill:#E5E5E5;}
	.st2{fill:#2196F3;}
	.st3{fill:#CBCBCB;}
	.st4{fill:#9F616A;}
	.st5{fill:#2F2E41;}
</style>
<path class="st0" d="M42.2,565.1C27.6,575.4,23.1,594,23.1,594s19,2,33.6-8.3s19.1-28.9,19.1-28.9S56.7,554.8,42.2,565.1z"/>
<path class="st0" d="M48,570.2c-7.3,16.2-24.7,24.3-24.7,24.3s-5.6-18.3,1.7-34.6s24.7-24.3,24.7-24.3S55.3,554,48,570.2z"/>
<rect x="399.3" y="0.3" class="st1" width="464.1" height="297.2"/>
<rect x="412.6" y="37.5" class="st0" width="437.6" height="113.3"/>
<rect x="412.6" y="166.6" class="st2" width="437.6" height="113.3"/>
<rect x="399.1" class="st2" width="464.1" height="19.7"/>
<circle class="st0" cx="413.8" cy="10.1" r="3.7"/>
<circle class="st0" cx="427.6" cy="10.1" r="3.7"/>
<circle class="st0" cx="441.5" cy="10.1" r="3.7"/>
<rect x="566.4" y="73.2" class="st3" width="146.3" height="6.9"/>
<rect x="566.4" y="91.1" class="st3" width="146.3" height="6.9"/>
<rect x="566.4" y="109.1" class="st3" width="146.3" height="6.9"/>
<circle class="st3" cx="554.5" cy="76.9" r="4.5"/>
<rect x="558.2" y="201.8" class="st0" width="146.3" height="6.9"/>
<rect x="558.2" y="219.8" class="st0" width="146.3" height="6.9"/>
<rect x="558.2" y="237.8" class="st0" width="146.3" height="6.9"/>
<circle class="st0" cx="536.9" cy="204.2" r="4.5"/>
<path class="st4" d="M202.1,353.7l-14.3-64.6l-3.3-24.9l-24.3,2l2.5,34.7l25.5,59c-2.3,5.6,0.4,12,6.1,14.3c5.6,2.3,12-0.4,14.3-6.1
	s-0.4-12-6.1-14.3C202.4,353.8,202.3,353.8,202.1,353.7L202.1,353.7z"/>
<polygon class="st4" points="237.4,581.8 249.7,581.8 255.5,534.5 237.4,534.5 "/>
<path class="st5" d="M234.3,577.8l24.1,0h0c8.5,0,15.4,6.9,15.4,15.4v0.5l-39.5,0L234.3,577.8z"/>
<polygon class="st4" points="137.2,572.7 149,575.9 166.9,531.8 149.5,527.1 "/>
<path class="st5" d="M135.2,568.1l23.3,6.3l0,0c8.2,2.2,13.1,10.6,10.9,18.9l-0.1,0.5l-38.2-10.3L135.2,568.1z"/>
<path class="st5" d="M257,374.5l5.4,9.4c0,0,6,1.6,4,21.1s-11.6,67.6-11.6,67.6s9.6,67.2,0.1,81.4l-1.7,12.2l-17.8,1.7l-0.4-10.8
	c0,0-12.9-49.7-10.7-71.4l-10.6-78.8c0,0-22.5,57.6-29.4,68.6c0,0-11.5,67.1-21.9,70.7l-3.7,12.3l-18.8-2.7l3.4-14.1
	c0,0,0.2-65.9,15.5-84.8l11.8-83.8L257,374.5z"/>
<path class="st0" d="M227,388.2c-8.3,0-16.1-1.2-20.6-4.9c-6.6-5.3-14.9-4.2-22.3-3.2c-7.4,1-13.8,1.9-16.1-4.2l0-0.1l0-0.1
	l7.4-98.6l-9.8-34.1l0-0.1c0-0.2,3.7-17,19.6-25l21.5-9.9l34.8,2.9l21.8,17.3v0.2l0.1,154.6l-0.4,0.1
	C261.8,383.5,243.3,388.2,227,388.2z"/>
<path class="st0" d="M180.3,276l-22.4-7.2l8.1-28.3l11.6,1.3L180.3,276z"/>
<path class="st4" d="M285.1,369.7l-14.3-64.6l-3.3-24.9l-24.3,2l2.5,34.7l25.5,59c-2.3,5.6,0.4,12,6.1,14.3c5.6,2.3,12-0.4,14.3-6.1
	s-0.4-12-6.1-14.3C285.4,369.8,285.3,369.8,285.1,369.7L285.1,369.7z"/>
<path class="st0" d="M239.9,286.5l-1.9-25.4l24.1-33.5l0.2,0c0.1,0,9.8-0.2,11.6,14.7c1.7,14.5-3.5,41.5-3.6,41.7l-0.1,0.4
	L239.9,286.5z"/>
<circle class="st4" cx="227.1" cy="178.4" r="22.8"/>
<path class="st5" d="M247.9,175c0,0,0.2-8,1.2-11.6s3-6.6,2-6.6s-1.5-2.5-1.5-2.5s-1-0.5-1.5,0s-1-3.5-1-3.5s-0.5-1.5-1-0.5
	s-0.5,0.5-1-1s-3-2.5-3-2.5s-9.6,0.5-11.1-1.5s-18.7-0.5-22.3,2s-19.2,11.6-16.7,19.2s9.8,25.1,11.6,26.8c2.9,2.8,4.9,3.8,18.6,6.5
	c2.7,0.5,16.3-8.2,16.3-9.7s-1.6-6.3,1-7c4-1,4.5,4.1,5.5,2.5S247.9,175,247.9,175z"/>
<path class="st0" d="M382,594.1H1c-0.6,0-1-0.4-1-1s0.4-1,1-1h381c0.6,0,1,0.4,1,1S382.6,594.1,382,594.1z"/>
</svg>
