<?xml version="1.0" encoding="utf-8"?>
<!-- Generator: Adobe Illustrator 24.1.3, SVG Export Plug-In . SVG Version: 6.00 Build 0)  -->
<svg version="1.1" id="Layer_1" xmlns="http://www.w3.org/2000/svg" xmlns:xlink="http://www.w3.org/1999/xlink" x="0px" y="0px"
	 viewBox="0 0 516.2 464" style="enable-background:new 0 0 516.2 464;" xml:space="preserve">
<style type="text/css">
	.st0{fill:#FFFFFF;}
	.st1{fill:#2196F3;}
	.st2{fill:#2F2E41;}
	.st3{fill:#CCCCCC;}
</style>
<path class="st0" d="M264,270.4l-112.5,2c-7.5,0.1-13.6-5.8-13.8-13.2c-0.1-7.5,5.8-13.6,13.2-13.8c0,0,0,0,0.1,0l112.5-2
	c3.5-0.1,6.4,2.7,6.4,6.2l0.3,14.4c0.1,3.3-2.5,6.1-5.8,6.4C264.3,270.4,264.2,270.4,264,270.4z"/>
<path class="st1" d="M242.3,274.1l-92.3,4.2c-3.5,0.2-6.4-2.5-6.6-6c0,0,0,0,0,0l-1-21.4c-0.2-3.5,2.5-6.4,6-6.6l92.3-4.2
	c3.5-0.2,6.4,2.5,6.6,6c0,0,0,0,0,0l1,21.4c0.2,3.4-2.4,6.3-5.8,6.6C242.5,274.1,242.4,274.1,242.3,274.1z"/>
<path class="st0" d="M86.2,457.7V338c0-3.5,2.8-6.3,6.3-6.3h14.4c3.5,0,6.3,2.8,6.3,6.3v119.7c0,3.5-2.8,6.3-6.3,6.3H92.5
	C89,464,86.2,461.2,86.2,457.7z"/>
<path class="st0" d="M123.9,457.7V338c0-3.5,2.8-6.3,6.3-6.3h14.4c3.5,0,6.3,2.8,6.3,6.3v119.7c0,3.5-2.8,6.3-6.3,6.3h-14.4
	C126.7,464,123.9,461.2,123.9,457.7z"/>
<circle class="st0" cx="127.6" cy="157.1" r="49.6"/>
<path class="st2" d="M154.5,174c1.6-0.5,3.1-1.4,4.3-2.5c1.7-1.6,2.5-3.9,2.3-6.3c-0.1-1.7-1-3.2-2.4-4.1c-1.8-1.1-4.1-1.1-6.6-0.1
	l0.1-19.4l-1.9,0l-0.1,22.8l1.5-0.9c1.7-1.1,4.2-1.9,6-0.7c0.9,0.6,1.4,1.6,1.5,2.6c0.1,1.7-0.5,3.4-1.7,4.7
	c-2.1,2.1-5.3,2.7-8.9,3.3l0.3,1.9C150.8,175,152.7,174.6,154.5,174z"/>
<rect x="162" y="141.4" transform="matrix(0.9914 -0.1309 0.1309 0.9914 -17.1987 23.1258)" class="st2" width="10.5" height="1.9"/>
<rect x="129.2" y="145.7" transform="matrix(0.9914 -0.1309 0.1309 0.9914 -18.0482 18.8681)" class="st2" width="10.5" height="1.9"/>
<path class="st0" d="M22.3,153.2l71.3,87.1c4.7,5.8,3.9,14.3-1.9,19c-5.8,4.7-14.3,3.9-19-1.9l0,0L1.4,170.3
	c-2.2-2.7-1.8-6.7,0.9-8.9c0,0,0,0,0,0l11.1-9.1C16.1,150.1,20.1,150.5,22.3,153.2L22.3,153.2z"/>
<path class="st1" d="M46.1,172.6l58.5,71.5c2.2,2.7,1.8,6.7-0.9,8.9c0,0,0,0,0,0l-19,15.5c-2.7,2.2-6.7,1.8-8.9-0.9c0,0,0,0,0,0
	l-58.5-71.5c-2.2-2.7-1.8-6.7,0.9-8.9l19-15.5C39.9,169.5,43.9,169.9,46.1,172.6L46.1,172.6z"/>
<path id="b687333e-18de-4d8a-8832-7c3edcdf36cf-697" class="st0" d="M451.8,85.7c-1.5-3.5-4.9-5.7-8.6-5.8H271.1
	c-5.2,0-9.3,4.2-9.3,9.3v217.7c0,5.2,4.2,9.3,9.3,9.3h172.1c5.1,0,9.3-4.2,9.3-9.3V89.2C452.5,88,452.3,86.8,451.8,85.7L451.8,85.7z
	 M450.4,306.9c0,4-3.3,7.3-7.3,7.3H271.1c-4,0-7.3-3.2-7.3-7.3V89.2c0-4,3.3-7.3,7.3-7.3h172.1c3,0,5.6,1.8,6.7,4.6
	c0.1,0.3,0.2,0.5,0.3,0.8c0.2,0.6,0.2,1.2,0.2,1.9L450.4,306.9z"/>
<path id="eca15e8c-c9ce-4149-9dd0-d1ea6c849243-698" class="st3" d="M415.9,131.3h-51.8c-2.3,0-4.1-1.9-4.1-4.1
	c0-2.3,1.9-4.1,4.1-4.1h51.8c2.3,0,4.1,1.9,4.1,4.1C420,129.4,418.2,131.3,415.9,131.3z"/>
<path id="b9f37388-2aff-4ffa-881f-18e269279f19-699" class="st3" d="M415.9,153.1h-51.8c-2.3,0-4.1-1.9-4.1-4.1
	c0-2.3,1.9-4.1,4.1-4.1h51.8c2.3,0,4.1,1.9,4.1,4.1C420,151.2,418.2,153.1,415.9,153.1z"/>
<path id="ab29eed0-504d-400c-b1ab-2256c8d671ed-700" class="st0" d="M337.5,165.4h-37.9c-2.6,0-4.7-2.1-4.7-4.7v-44.7
	c0-2.6,2.1-4.7,4.7-4.7h37.9c2.6,0,4.7,2.1,4.7,4.7v44.7C342.1,163.4,340,165.4,337.5,165.4z"/>
<path id="fa5fec34-0c55-4409-8f72-9659063fc84a-701" class="st3" d="M415.5,197.6H298.4c-2.3,0-4.1-1.9-4.1-4.1
	c0-2.3,1.9-4.1,4.1-4.1h117.1c2.3,0,4.1,1.9,4.1,4.1C419.7,195.8,417.8,197.6,415.5,197.6z"/>
<path id="a43251d6-16e2-4557-b881-b3d221f9e0a0-702" class="st3" d="M415.5,219.4H298.4c-2.3,0-4.1-1.9-4.1-4.1
	c0-2.3,1.9-4.1,4.1-4.1h117.1c2.3,0,4.1,1.9,4.1,4.1C419.7,217.5,417.8,219.4,415.5,219.4z"/>
<path id="b1a9b5d8-150e-43cf-a101-e2528d51164c-703" class="st3" d="M415.5,241.2H298.4c-2.3,0-4.1-1.9-4.1-4.1
	c0-2.3,1.9-4.1,4.1-4.1h117.1c2.3,0,4.1,1.9,4.1,4.1C419.7,239.3,417.8,241.2,415.5,241.2z"/>
<path id="fb13d629-1d1d-4a08-ba0c-67ba8ed3b5d8-704" class="st3" d="M415.5,262.9H298.4c-2.3,0-4.1-1.9-4.1-4.1s1.9-4.1,4.1-4.1
	h117.1c2.3,0,4.1,1.9,4.1,4.1S417.8,262.9,415.5,262.9z"/>
<path id="f81dc734-d8e2-4a40-b2eb-9530c4619ee2-705" class="st3" d="M415.5,284.7H298.4c-2.3,0-4.1-1.9-4.1-4.1
	c0-2.3,1.9-4.1,4.1-4.1h117.1c2.3,0,4.1,1.9,4.1,4.1C419.7,282.8,417.8,284.7,415.5,284.7z"/>
<circle id="bb95e310-3287-4bad-95b8-3adafab6ad5a" class="st0" cx="456.8" cy="59.4" r="59.4"/>
<circle class="st1" cx="455.7" cy="93.2" r="7"/>
<path class="st1" d="M454.9,20.4c-10.9,0.1-19.8,8.9-20,19.9c0,0.1,0,0.8,0,1.7c0,2.8,2.3,5.1,5.1,5.1l0,0c2.8,0,5.1-2.3,5.1-5.1v0
	c0-0.6,0-1.1,0-1.1c0-5.4,4.3-9.7,9.7-9.7c5.4,0,9.7,4.3,9.7,9.7c0,3.3-1.7,6.4-4.5,8.2l0,0c0,0-7.3,4.7-9.5,11.1l0,0
	c-0.4,1.3-0.6,2.7-0.6,4.1c0,0.6,0,5.5,0.1,9.5c0,2.9,2.4,5.2,5.3,5.2l0,0c2.9,0,5.3-2.4,5.3-5.3v0l0,0c0-3.7,0-8,0-8.3
	c0-4,3.8-7.9,6.9-10.5c3.6-2.9,6.2-7,7.2-11.5c0.2-0.9,0.4-1.9,0.4-2.9c0-11.1-9-20.2-20.2-20.2C455,20.4,455,20.4,454.9,20.4z"/>
<path class="st1" d="M115.2,135.1c8.9-5.8,20.1-3.2,29.9-2.5c8.9,0.7,19.5,0,25.8-7.3c6.5-7.6,6-18.8,0.6-26.9
	c-5.3-7.9-14.2-12.9-23.5-14.2c-10.5-1.5-21.1,1.4-29.3,8.1l3.2,1.3C120,76,107,60,89.5,55.7c-17.7-4.4-37.4,3.1-46.8,18.8
	c-9.3,15.5-8.2,37.2,5.2,50.1c6.4,6.2,15.2,9.4,24,7.7c8.2-1.6,15.4-7.5,17-15.9c1.4-7.8-1.7-16.7-9.3-20.1c-4.2-2-9.1-1.9-13.2,0.2
	c-3.8,2.1-6.2,6-6.5,10.3c-0.1,2.1,0.3,4.1,1.2,5.9c1.1,2.2,4.3,0.3,3.2-1.9c-1.4-3.2-0.7-7,1.8-9.5c2.8-2.9,7.1-3.4,10.8-2.2
	c6.7,2.2,9.7,9.8,8.4,16.4c-1.4,7.3-7.7,12-14.8,13.2c-7.7,1.3-15.3-2-20.6-7.4c-11.2-11.5-12.2-30-4.6-43.7
	c7.7-13.9,24.1-21.4,39.7-19.1c15.4,2.3,28.2,14.5,32.1,29.4c0.5,1.9,0.9,3.8,1.1,5.7c0,1,0.9,1.9,2,1.8c0.5,0,0.9-0.2,1.2-0.5
	c13.2-11,35.2-9.8,46,4c5.3,6.8,6.9,17.3,0.7,24.1c-5.9,6.5-15.7,6.5-23.8,5.8c-10.3-0.9-21.6-3-30.9,3
	C111.3,133.2,113.2,136.4,115.2,135.1L115.2,135.1z"/>
<path class="st1" d="M155.2,379.7H80.8c-3.1,0-5.6-2.5-5.6-5.6v-24.8c0-3.1,2.5-5.6,5.6-5.6h74.4c3.1,0,5.6,2.5,5.6,5.6v24.8
	C160.8,377.2,158.3,379.7,155.2,379.7z"/>
<path class="st1" d="M157.8,257.4c-2.3-11.9-11.4-21.4-23.1-25.2c4.2-1.4,6.9-3.4,6.9-5.6c0-4.1-8.9-7.4-19.8-7.4
	s-19.8,3.3-19.8,7.4c0,2.3,2.8,4.3,7.1,5.7c-18,5.4-31.1,21-31.1,39.5c0,0-5.5,35.5-9.9,63.9c-2.8,18.2,12.4,34.4,32.2,34.4h69.6
	c4.6,0,8.3-3.4,8.3-7.7C178.2,362.4,165.3,296.1,157.8,257.4z"/>
<path class="st0" d="M369,464H1c-0.6,0-1-0.4-1-1s0.4-1,1-1h368c0.6,0,1,0.4,1,1S369.6,464,369,464z"/>
</svg>
